<?xml version="1.0" encoding="UTF-8" standalone="no"?>
<svg
   width="50"
   height="50"
   viewBox="0 0 69.666667 69.444445"
   fill="currentColor"
   id="logo"
   alt="Maytronics Australia"
   version="1.1"
   sodipodi:docname="logo_Ov3.svg"
   inkscape:version="1.2.2 (732a01da63, 2022-12-09)"
   xmlns:inkscape="http://www.inkscape.org/namespaces/inkscape"
   xmlns:sodipodi="http://sodipodi.sourceforge.net/DTD/sodipodi-0.dtd"
   xmlns="http://www.w3.org/2000/svg"
   xmlns:svg="http://www.w3.org/2000/svg">
  <defs
     id="defs184" />
  <sodipodi:namedview
     id="namedview182"
     pagecolor="#ffffff"
     bordercolor="#000000"
     borderopacity="0.25"
     inkscape:showpageshadow="2"
     inkscape:pageopacity="0.0"
     inkscape:pagecheckerboard="0"
     inkscape:deskcolor="#d1d1d1"
     showgrid="false"
     inkscape:zoom="6.7033723"
     inkscape:cx="17.379312"
     inkscape:cy="24.689066"
     inkscape:window-width="1920"
     inkscape:window-height="991"
     inkscape:window-x="3831"
     inkscape:window-y="1068"
     inkscape:window-maximized="1"
     inkscape:current-layer="logo" />
  <g
     id="g479"
     transform="translate(0,14.263678)">
    <path
       d="m 47.0891,-0.08 c -10.711,0.0359 -19.391,9.38458 -19.473,20.94358 1.044,0.3531 2.066,0.7693 3.06,1.2462 1.127,0.5309 2.225,1.1215 3.288,1.7692 -0.175,-0.9388 -0.263,-1.8915 -0.264,-2.8462 0,-8 6.012,-14.5179 13.41,-14.5538 7.398,-0.0359 13.389,6.559 13.389,14.5538 -0.031,1.2733 -0.15,2.543 -0.357,3.8 2.496,-0.6505 4.74,-2.0233 6.447,-3.9436 C 66.4801,9.30458 57.8011,-0.0441 47.0891,-0.08 Z"
       id="path489" />
    <path
       d="m 65.1161,25.62768 c -2.378,2.1578 -5.175,3.8112 -8.219,4.8588 -3.045,1.0476 -6.273,1.4674 -9.487,1.2335 -3.845,-0.2855 -7.586,-1.3761 -10.975,-3.2 -0.76,-0.4205 -1.784,-0.9897 -2.301,-1.3077 -0.517,-0.3179 -1.033,-0.6769 -1.55,-0.9692 -1.016,-0.6106 -2.063,-1.1669 -3.138,-1.6667 -4.2285,-1.9857 -8.9355,-2.7482 -13.5808,-2.2 -5.6851,0.7847 -11.1129,2.8532 -15.8653,6.0462 4.7457,-1.9267 9.8784,-2.7309 14.9917,-2.3487 4.1911,0.3929 8.1896,1.9341 11.5484,4.4513 0.865,0.6404 1.695,1.3251 2.487,2.0512 0.403,0.3488 0.786,0.7641 1.179,1.1334 0.392,0.3692 1.214,1.0666 1.809,1.5795 2.668,2.2307 5.775,3.8847 9.124,4.8564 2.759,0.8096 5.656,1.0452 8.511,0.6923 2.854,-0.353 5.605,-1.287 8.078,-2.7436 2.997,-1.7587 5.488,-4.25 7.238,-7.2359 2.543,-4.5333 2.026,-7.2256 2.067,-7.1795 -0.605,0.6816 -1.245,1.332 -1.917,1.9487 z"
       fill="#58c8df"
       id="path486" />
  </g>
</svg>
